# Blender 3.5.1
# www.blender.org
mtllib plane2.mtl
o Plane
v -12.000002 0.000008 36.000004
v 12.000000 0.000008 36.000000
v -12.000002 -0.000008 -36.000004
v 12.000002 -0.000008 -36.000004
v 0.000000 0.000000 0.000000
v -4.488801 0.000003 13.466406
v -3.755696 -0.000002 -11.267089
v 3.666885 0.000002 11.000658
v -1.682016 0.000008 36.000000
v 3.823107 0.000008 36.000000
v 3.164915 -0.000002 -9.494744
v -1.916056 -0.000008 -36.000004
v 5.041972 -0.000008 -36.000000
v 7.911553 0.000008 36.000000
v -7.877849 -0.000005 -23.633547
v 12.000001 0.000000 0.000000
v -12.000001 0.000000 0.000000
v 1.833443 0.000001 5.500329
v -2.244401 0.000001 6.733202
v 7.582458 -0.000005 -22.747374
v -8.244401 0.000005 24.733204
v -1.877848 -0.000001 -5.633545
v 7.833443 0.000005 23.500328
v -6.841008 0.000008 36.000000
v 1.070545 0.000008 36.000000
v 1.582457 -0.000001 -4.747372
v -6.958028 -0.000008 -36.000000
v -4.122249 0.000000 1.099658
v -3.085409 0.000005 24.733202
v 3.744996 0.000005 23.500328
v -2.835876 -0.000005 -23.633549
v 0.624429 -0.000005 -22.747375
v 3.415900 0.000000 0.752957
v 6.496664 0.000006 27.666885
v 7.707951 0.000000 0.376478
v -8.061125 0.000000 0.549829
v -0.626709 -0.000003 -14.190460
v -2.748166 0.000000 0.733105
v 0.263835 0.000004 19.293413
v -6.056939 0.000006 28.488802
v -5.890584 -0.000006 -27.755695
v 4.416286 -0.000006 -27.164915
v 2.277267 0.000000 0.501971
vn -0.0000 1.0000 -0.0000
vt 1.000000 0.000000
vt 1.000000 1.000000
vt 0.000100 0.000000
vt 0.000000 1.000000
vt 0.500050 0.500000
vt 0.687065 0.312967
vt 0.343578 0.343513
vt 0.652822 0.652787
vt 1.000000 0.429916
vt 1.000000 0.659296
vt 0.368165 0.631872
vt 0.000058 0.420164
vt 0.000029 0.710082
vt 1.000000 0.829648
vt 0.171839 0.171756
vt 0.500000 1.000000
vt 0.500050 0.000000
vt 0.576436 0.576393
vt 0.593557 0.406483
vt 0.184083 0.815936
vt 0.843532 0.156483
vt 0.421814 0.421756
vt 0.826411 0.826394
vt 1.000000 0.214958
vt 1.000000 0.544606
vt 0.434108 0.565936
vt 0.000079 0.210082
vt 0.515321 0.328240
vt 0.843532 0.371441
vt 0.826411 0.656042
vt 0.171818 0.381839
vt 0.184112 0.526018
vt 0.510494 0.642329
vt 0.884274 0.770694
vt 0.505247 0.821165
vt 0.507686 0.164120
vt 0.302963 0.473887
vt 0.510231 0.385493
vt 0.767987 0.510993
vt 0.895688 0.247628
vt 0.114579 0.254559
vt 0.122741 0.684012
vt 0.507012 0.594886
s 0
f 2/2/1 34/34/1 14/14/1
f 30/30/1 23/23/1 8/8/1
f 10/10/1 34/34/1 30/30/1
f 16/16/1 23/23/1 2/2/1
f 16/16/1 20/20/1 35/35/1
f 35/35/1 11/11/1 33/33/1
f 35/35/1 8/8/1 23/23/1
f 21/21/1 17/17/1 1/1/1
f 6/6/1 36/36/1 21/21/1
f 36/36/1 7/7/1 15/15/1
f 17/17/1 15/15/1 3/3/1
f 26/26/1 22/22/1 5/5/1
f 11/11/1 37/37/1 26/26/1
f 32/32/1 31/31/1 37/37/1
f 37/37/1 7/7/1 22/22/1
f 28/28/1 22/22/1 7/7/1
f 19/19/1 28/28/1 6/6/1
f 5/5/1 38/38/1 19/19/1
f 30/30/1 25/25/1 10/10/1
f 8/8/1 39/39/1 30/30/1
f 19/19/1 18/18/1 5/5/1
f 6/6/1 39/39/1 19/19/1
f 25/25/1 29/29/1 9/9/1
f 9/9/1 40/40/1 24/24/1
f 21/21/1 29/29/1 6/6/1
f 1/1/1 40/40/1 21/21/1
f 31/31/1 15/15/1 7/7/1
f 12/12/1 41/41/1 31/31/1
f 3/3/1 41/41/1 27/27/1
f 12/12/1 42/42/1 13/13/1
f 20/20/1 32/32/1 11/11/1
f 4/4/1 42/42/1 20/20/1
f 33/33/1 18/18/1 8/8/1
f 26/26/1 33/33/1 11/11/1
f 5/5/1 43/43/1 26/26/1
f 2/2/1 23/23/1 34/34/1
f 30/30/1 34/34/1 23/23/1
f 10/10/1 14/14/1 34/34/1
f 16/16/1 35/35/1 23/23/1
f 16/16/1 4/4/1 20/20/1
f 35/35/1 20/20/1 11/11/1
f 35/35/1 33/33/1 8/8/1
f 21/21/1 36/36/1 17/17/1
f 6/6/1 28/28/1 36/36/1
f 36/36/1 28/28/1 7/7/1
f 17/17/1 36/36/1 15/15/1
f 26/26/1 37/37/1 22/22/1
f 11/11/1 32/32/1 37/37/1
f 32/32/1 12/12/1 31/31/1
f 37/37/1 31/31/1 7/7/1
f 28/28/1 38/38/1 22/22/1
f 19/19/1 38/38/1 28/28/1
f 5/5/1 22/22/1 38/38/1
f 30/30/1 39/39/1 25/25/1
f 8/8/1 18/18/1 39/39/1
f 19/19/1 39/39/1 18/18/1
f 6/6/1 29/29/1 39/39/1
f 25/25/1 39/39/1 29/29/1
f 9/9/1 29/29/1 40/40/1
f 21/21/1 40/40/1 29/29/1
f 1/1/1 24/24/1 40/40/1
f 31/31/1 41/41/1 15/15/1
f 12/12/1 27/27/1 41/41/1
f 3/3/1 15/15/1 41/41/1
f 12/12/1 32/32/1 42/42/1
f 20/20/1 42/42/1 32/32/1
f 4/4/1 13/13/1 42/42/1
f 33/33/1 43/43/1 18/18/1
f 26/26/1 43/43/1 33/33/1
f 5/5/1 18/18/1 43/43/1
